<svg width="15" height="16" viewBox="0 0 15 16" fill="none" xmlns="http://www.w3.org/2000/svg">
<path d="M12.5388 7.06262H8.43726C8.06429 7.06262 7.70661 6.91446 7.44289 6.65074C7.17916 6.38702 7.03101 6.02933 7.03101 5.65637V1.55481C7.03101 1.52373 7.01866 1.49392 6.99668 1.47195C6.97471 1.44997 6.9449 1.43762 6.91382 1.43762H4.21851C3.72122 1.43762 3.24431 1.63517 2.89268 1.9868C2.54105 2.33843 2.34351 2.81534 2.34351 3.31262V12.6876C2.34351 13.1849 2.54105 13.6618 2.89268 14.0134C3.24431 14.3651 3.72122 14.5626 4.21851 14.5626H10.781C11.2783 14.5626 11.7552 14.3651 12.1068 14.0134C12.4585 13.6618 12.656 13.1849 12.656 12.6876V7.17981C12.656 7.14873 12.6437 7.11892 12.6217 7.09694C12.5997 7.07497 12.5699 7.06262 12.5388 7.06262Z" fill="#3182CE"/>
<path d="M12.2816 6.02594L8.06841 1.81275C8.06021 1.80461 8.0498 1.79907 8.03846 1.79683C8.02713 1.79459 8.01539 1.79575 8.00471 1.80016C7.99403 1.80458 7.9849 1.81205 7.97846 1.82164C7.97202 1.83123 7.96855 1.84251 7.96851 1.85406V5.65709C7.96851 5.78141 8.01789 5.90064 8.1058 5.98855C8.19371 6.07646 8.31294 6.12584 8.43726 6.12584H12.2403C12.2518 6.12579 12.2631 6.12233 12.2727 6.11589C12.2823 6.10945 12.2898 6.10031 12.2942 6.08964C12.2986 6.07896 12.2998 6.06722 12.2975 6.05588C12.2953 6.04455 12.2897 6.03413 12.2816 6.02594Z" fill="#3182CE"/>
</svg>
