<svg width="32" height="32" viewBox="0 0 32 32" fill="none" xmlns="http://www.w3.org/2000/svg">
<path d="M21.6384 8.78461C19.1972 8.78461 18.1654 9.94953 16.4653 9.94953C14.7221 9.94953 13.3925 8.79308 11.277 8.79308C9.20632 8.79308 6.99818 10.0573 5.59591 12.211C3.62693 15.248 3.96114 20.9678 7.15015 25.8407C8.29085 27.585 9.81421 29.5413 11.8123 29.5625H11.8486C13.5851 29.5625 14.1009 28.4254 16.4907 28.4121H16.527C18.8811 28.4121 19.3534 29.5558 21.0826 29.5558H21.1189C23.117 29.5346 24.7221 27.367 25.8628 25.6294C26.6838 24.3797 26.9889 23.7524 27.6186 22.3386C23.0056 20.5876 22.2645 14.0479 26.8267 11.5407C25.4341 9.79695 23.4772 8.78703 21.6324 8.78703L21.6384 8.78461Z" fill="#2D3748"/>
<path d="M21.1008 2.43903C19.6477 2.53772 17.9524 3.46287 16.9594 4.67078C16.0585 5.76547 15.3174 7.38934 15.608 8.96416H15.7243C17.2719 8.96416 18.8558 8.03235 19.7809 6.83836C20.6722 5.7019 21.3479 4.09135 21.1008 2.43903Z" fill="#2D3748"/>
</svg>
