<svg width="15" height="16" viewBox="0 0 15 16" fill="none" xmlns="http://www.w3.org/2000/svg">
<g clip-path="url(#clip0_2611_6702)">
<path d="M0.937256 11.5152C0.937256 11.9503 1.11011 12.3676 1.41778 12.6753C1.72546 12.983 2.14276 13.1558 2.57788 13.1558H12.4216C12.8567 13.1558 13.274 12.983 13.5817 12.6753C13.8894 12.3676 14.0623 11.9503 14.0623 11.5152V7.00348H0.937256V11.5152ZM2.87085 9.28863C2.87085 9.05553 2.96345 8.83198 3.12827 8.66715C3.2931 8.50233 3.51665 8.40973 3.74975 8.40973H5.156C5.3891 8.40973 5.61266 8.50233 5.77749 8.66715C5.94231 8.83198 6.03491 9.05553 6.03491 9.28863V9.87457C6.03491 10.1077 5.94231 10.3312 5.77749 10.4961C5.61266 10.6609 5.3891 10.7535 5.156 10.7535H3.74975C3.51665 10.7535 3.2931 10.6609 3.12827 10.4961C2.96345 10.3312 2.87085 10.1077 2.87085 9.87457V9.28863Z" fill="#3182CE"/>
<path d="M12.4216 2.84296H2.57788C2.14276 2.84296 1.72546 3.01581 1.41778 3.32348C1.11011 3.63116 0.937256 4.04846 0.937256 4.48358V5.2453H14.0623V4.48358C14.0623 4.04846 13.8894 3.63116 13.5817 3.32348C13.274 3.01581 12.8567 2.84296 12.4216 2.84296V2.84296Z" fill="#3182CE"/>
</g>
<defs>
<clipPath id="clip0_2611_6702">
<rect width="15" height="15" fill="white" transform="translate(-0.000244141 0.5)"/>
</clipPath>
</defs>
</svg>
