<svg width="23" height="23" viewBox="0 0 23 23" fill="none" xmlns="http://www.w3.org/2000/svg">
<path d="M12.6562 9.85571H18.8086C18.8521 9.85571 18.8938 9.873 18.9246 9.90376C18.9554 9.93453 18.9727 9.97626 18.9727 10.0198V18.2815C18.9727 19.0243 18.6776 19.7367 18.1523 20.2619C17.6271 20.7872 16.9147 21.0823 16.1719 21.0823H6.32812C5.58531 21.0823 4.87292 20.7872 4.34767 20.2619C3.82243 19.7367 3.52734 19.0243 3.52734 18.2815V4.21899C3.52734 3.47618 3.82243 2.76379 4.34767 2.23854C4.87292 1.71329 5.58531 1.41821 6.32812 1.41821H10.3711C10.4146 1.41821 10.4563 1.4355 10.4871 1.46627C10.5179 1.49703 10.5352 1.53876 10.5352 1.58228V7.73462C10.5352 8.29717 10.7586 8.83668 11.1564 9.23446C11.5542 9.63224 12.0937 9.85571 12.6562 9.85571ZM7.73437 16.887H14.7656C14.9552 16.887 15.137 16.8116 15.2711 16.6776C15.4052 16.5435 15.4805 16.3617 15.4805 16.1721C15.4805 15.9825 15.4052 15.8007 15.2711 15.6666C15.137 15.5326 14.9552 15.4573 14.7656 15.4573H7.73437C7.54479 15.4573 7.36296 15.5326 7.2289 15.6666C7.09484 15.8007 7.01953 15.9825 7.01953 16.1721C7.01953 16.3617 7.09484 16.5435 7.2289 16.6776C7.36296 16.8116 7.54479 16.887 7.73437 16.887ZM7.73437 13.3713H14.7656C14.9552 13.3713 15.137 13.296 15.2711 13.162C15.4052 13.0279 15.4805 12.8461 15.4805 12.6565C15.4805 12.4669 15.4052 12.2851 15.2711 12.151C15.137 12.017 14.9552 11.9416 14.7656 11.9416H7.73437C7.54479 11.9416 7.36296 12.017 7.2289 12.151C7.09484 12.2851 7.01953 12.4669 7.01953 12.6565C7.01953 12.8461 7.09484 13.0279 7.2289 13.162C7.36296 13.296 7.54479 13.3713 7.73437 13.3713Z" fill="white" stroke="#3182CE" stroke-width="0.0234375"/>
<path d="M12.0946 1.97753L18.4143 8.29726L12.0946 1.97753ZM12.0946 1.97753C12.0946 1.97753 12.0946 1.97753 12.0946 1.97752M12.0946 1.97753L12.0946 1.97752M12.0946 1.97752C12.0839 1.96694 12.0704 1.95974 12.0557 1.95683C12.0409 1.95392 12.0257 1.95542 12.0118 1.96116C11.9979 1.9669 11.986 1.97662 11.9777 1.98908C11.9693 2.00155 11.9648 2.0162 11.9647 2.03121V7.73573C11.9647 7.9191 12.0376 8.09496 12.1672 8.22462C12.2969 8.35429 12.4728 8.42713 12.6561 8.42713H18.3606C18.3756 8.42707 18.3903 8.42257 18.4028 8.41419C18.4152 8.40582 18.425 8.39395 18.4307 8.38007C18.4364 8.36619 18.4379 8.35092 18.435 8.33619C18.4321 8.32147 18.4249 8.30793 18.4143 8.29728L12.0946 1.97752Z" fill="white" stroke="#3182CE" stroke-width="0.0234375"/>
</svg>
