<svg width="13" height="12" viewBox="0 0 13 12" fill="none" xmlns="http://www.w3.org/2000/svg">
<path d="M6.66265 0.467478C6.61903 0.425753 6.56099 0.402466 6.50063 0.402466C6.44027 0.402466 6.38224 0.425753 6.33862 0.467478L0.945068 5.61992C0.922163 5.64183 0.903939 5.66816 0.891502 5.69731C0.879064 5.72647 0.872669 5.75785 0.872705 5.78955L0.871826 10.6253C0.871826 10.8739 0.970598 11.1124 1.14641 11.2882C1.32223 11.464 1.56069 11.5628 1.80933 11.5628H4.62476C4.74908 11.5628 4.8683 11.5134 4.95621 11.4255C5.04412 11.3376 5.0935 11.2184 5.0935 11.094V7.10966C5.0935 7.0475 5.1182 6.98789 5.16215 6.94393C5.20611 6.89998 5.26572 6.87529 5.32788 6.87529H7.67163C7.73379 6.87529 7.7934 6.89998 7.83736 6.94393C7.88131 6.98789 7.906 7.0475 7.906 7.10966V11.094C7.906 11.2184 7.95539 11.3376 8.0433 11.4255C8.13121 11.5134 8.25043 11.5628 8.37475 11.5628H11.189C11.4377 11.5628 11.6761 11.464 11.8519 11.2882C12.0277 11.1124 12.1265 10.8739 12.1265 10.6253V5.78955C12.1265 5.75785 12.1202 5.72647 12.1077 5.69731C12.0953 5.66816 12.0771 5.64183 12.0541 5.61992L6.66265 0.467478Z" fill="white"/>
</svg>
