<svg width="23" height="23" viewBox="0 0 23 23" fill="none" xmlns="http://www.w3.org/2000/svg">
<path d="M7.73425 19.6874C8.5109 19.6874 9.1405 19.0578 9.1405 18.2811C9.1405 17.5045 8.5109 16.8749 7.73425 16.8749C6.9576 16.8749 6.328 17.5045 6.328 18.2811C6.328 19.0578 6.9576 19.6874 7.73425 19.6874Z" fill="white"/>
<path d="M17.5781 19.6874C18.3548 19.6874 18.9844 19.0578 18.9844 18.2811C18.9844 17.5045 18.3548 16.8749 17.5781 16.8749C16.8015 16.8749 16.1719 17.5045 16.1719 18.2811C16.1719 19.0578 16.8015 19.6874 17.5781 19.6874Z" fill="white"/>
<path d="M20.0742 5.30796C19.9754 5.18713 19.851 5.08981 19.7099 5.02308C19.5688 4.95634 19.4147 4.92185 19.2586 4.92212H5.88384L5.61445 3.3937C5.58573 3.2309 5.50056 3.08342 5.3739 2.97717C5.24724 2.87093 5.08719 2.81271 4.92187 2.81274H2.10937C1.92289 2.81274 1.74405 2.88682 1.61219 3.01868C1.48033 3.15055 1.40625 3.32939 1.40625 3.51587C1.40625 3.70235 1.48033 3.88119 1.61219 4.01305C1.74405 4.14491 1.92289 4.21899 2.10937 4.21899H4.33213L6.33867 15.5912C6.36739 15.754 6.45257 15.9014 6.57923 16.0077C6.70588 16.1139 6.86593 16.1721 7.03125 16.1721H18.2812C18.4677 16.1721 18.6466 16.098 18.7784 15.9662C18.9103 15.8343 18.9844 15.6555 18.9844 15.469C18.9844 15.2825 18.9103 15.1037 18.7784 14.9718C18.6466 14.8399 18.4677 14.7659 18.2812 14.7659H7.62099L7.37314 13.3596H17.993C18.2368 13.3593 18.4731 13.2748 18.6617 13.1203C18.8504 12.9658 18.9799 12.7509 19.0283 12.5119L20.2939 6.18379C20.3244 6.03064 20.3205 5.87263 20.2825 5.72117C20.2445 5.56971 20.1734 5.42857 20.0742 5.30796Z" fill="white"/>
</svg>
